<svg xmlns="http://www.w3.org/2000/svg" viewBox="0 0 360 260" fill="none">
  <defs>
    <linearGradient id="plate" x1="40" y1="210" x2="320" y2="250" gradientUnits="userSpaceOnUse">
      <stop offset="0" stop-color="#ffe2f1"/>
      <stop offset="1" stop-color="#f6c9e6"/>
    </linearGradient>
    <linearGradient id="cake" x1="90" y1="40" x2="260" y2="220" gradientUnits="userSpaceOnUse">
      <stop offset="0" stop-color="#fff2e4"/>
      <stop offset="1" stop-color="#f7d7b4"/>
    </linearGradient>
    <linearGradient id="topping" x1="110" y1="30" x2="260" y2="120" gradientUnits="userSpaceOnUse">
      <stop offset="0" stop-color="#ffd5ea"/>
      <stop offset="1" stop-color="#f5a8c9"/>
    </linearGradient>
    <linearGradient id="shadow" x1="80" y1="180" x2="270" y2="240" gradientUnits="userSpaceOnUse">
      <stop offset="0" stop-color="#f2b8d4" stop-opacity="0.4"/>
      <stop offset="1" stop-color="#c88fe0" stop-opacity="0.2"/>
    </linearGradient>
  </defs>
  <ellipse cx="180" cy="220" rx="140" ry="26" fill="url(#plate)"/>
  <path
    d="M86 198L150 56c6-14 26-26 44-26h58c18 0 28 12 24 26l-38 142H86z"
    fill="url(#cake)"
    stroke="#f1c8a2"
    stroke-width="4"
  />
  <path
    d="M156 60h90c16 0 24 10 20 22l-10 36H132l14-58z"
    fill="url(#topping)"
  />
  <path
    d="M146 140h110l-12 46H122l24-46z"
    fill="#ffe9f2"
    opacity="0.9"
  />
  <circle cx="150" cy="62" r="10" fill="#ff6fae"/>
  <circle cx="200" cy="54" r="12" fill="#ff5f9f"/>
  <circle cx="245" cy="64" r="9" fill="#ff74b9"/>
  <circle cx="210" cy="98" r="6" fill="#ffd3ea"/>
  <circle cx="170" cy="100" r="6" fill="#ffd3ea"/>
  <path
    d="M120 210c30 8 80 8 130 0"
    stroke="url(#shadow)"
    stroke-width="12"
    stroke-linecap="round"
  />
</svg>
