<svg xmlns="http://www.w3.org/2000/svg" viewBox="0 0 260 220" fill="none">
  <defs>
    <linearGradient id="wing" x1="0" y1="0" x2="120" y2="120" gradientUnits="userSpaceOnUse">
      <stop offset="0" stop-color="#f5d7ff"/>
      <stop offset="1" stop-color="#d2a5ff"/>
    </linearGradient>
    <linearGradient id="heart" x1="90" y1="60" x2="200" y2="180" gradientUnits="userSpaceOnUse">
      <stop offset="0" stop-color="#ff8bdc"/>
      <stop offset="1" stop-color="#c15bff"/>
    </linearGradient>
  </defs>
  <path
    d="M66 112c-28-10-48-28-54-52 20 6 40 8 58 2-12-10-18-20-18-32 24 6 44 18 58 34-2-18 4-34 20-48 6 24 6 46-4 64 18-10 40-14 68-10-16 18-34 30-56 36"
    fill="url(#wing)"
    opacity="0.9"
  />
  <path
    d="M132 182c-28-20-58-44-58-74 0-20 16-36 36-36 10 0 18 4 22 10 4-6 12-10 22-10 20 0 36 16 36 36 0 30-30 54-58 74z"
    fill="url(#heart)"
  />
  <circle cx="210" cy="78" r="6" fill="#ffe6f7"/>
  <circle cx="230" cy="46" r="4" fill="#ffe6f7"/>
</svg>
