<svg xmlns="http://www.w3.org/2000/svg" viewBox="0 0 320 320" fill="none">
  <defs>
    <radialGradient id="petal" cx="0" cy="0" r="1" gradientUnits="userSpaceOnUse" gradientTransform="translate(160 80) rotate(90) scale(90 60)">
      <stop offset="0" stop-color="#ffd989"/>
      <stop offset="1" stop-color="#f7a532"/>
    </radialGradient>
    <radialGradient id="center" cx="0" cy="0" r="1" gradientUnits="userSpaceOnUse" gradientTransform="translate(160 160) rotate(90) scale(70)">
      <stop offset="0" stop-color="#7a3b1a"/>
      <stop offset="1" stop-color="#4b240f"/>
    </radialGradient>
    <linearGradient id="glow" x1="80" y1="40" x2="240" y2="280" gradientUnits="userSpaceOnUse">
      <stop offset="0" stop-color="#fff2c7" stop-opacity="0.9"/>
      <stop offset="1" stop-color="#ffd18d" stop-opacity="0.3"/>
    </linearGradient>
  </defs>
  <circle cx="160" cy="160" r="110" fill="url(#glow)" opacity="0.6"/>
  <g opacity="0.95">
    <path d="M160 20c18 10 32 38 32 60-20 6-44 6-64 0 0-22 14-50 32-60z" fill="url(#petal)"/>
    <path d="M300 160c-10 18-38 32-60 32-6-20-6-44 0-64 22 0 50 14 60 32z" fill="url(#petal)"/>
    <path d="M160 300c-18-10-32-38-32-60 20-6 44-6 64 0 0 22-14 50-32 60z" fill="url(#petal)"/>
    <path d="M20 160c10-18 38-32 60-32 6 20 6 44 0 64-22 0-50-14-60-32z" fill="url(#petal)"/>
    <path d="M252 68c2 20-10 48-26 64-18-12-34-28-44-48 14-16 50-22 70-16z" fill="url(#petal)"/>
    <path d="M252 252c-20 2-48-10-64-26 12-18 28-34 48-44 16 14 22 50 16 70z" fill="url(#petal)"/>
    <path d="M68 252c-2-20 10-48 26-64 18 12 34 28 44 48-14 16-50 22-70 16z" fill="url(#petal)"/>
    <path d="M68 68c20-2 48 10 64 26-12 18-28 34-48 44-16-14-22-50-16-70z" fill="url(#petal)"/>
  </g>
  <circle cx="160" cy="160" r="58" fill="url(#center)"/>
  <circle cx="160" cy="160" r="40" fill="#6a3418" opacity="0.7"/>
  <circle cx="160" cy="160" r="26" fill="#3d1f0f" opacity="0.7"/>
  <circle cx="120" cy="140" r="8" fill="#fff2c7" opacity="0.6"/>
  <circle cx="200" cy="180" r="6" fill="#fff2c7" opacity="0.6"/>
</svg>
